#!OML:ASF F:\VICON\USERDATA\INSTALL\rory3\rory3.ASF
:FULLY-SPECIFIED
:DEGREES
1009
root 0.655585 15.7249 -4.07707 -18.7091 -41.4109 3.48125
lowerback 21.6661 2.09865 -3.54113
upperback 10.6267 1.76164 2.09311
thorax -0.687148 0.538994 3.87026
lowerneck -23.6319 -0.397385 -8.15111
upperneck 16.567 0.789172 6.51793
head 9.00496 0.589542 3.70701
rclavicle -1.43125e-014 -3.65764e-014
rhumerus -21.1126 9.3759 -83.8734
rradius 87.2817
rwrist 36.7272
rhand -23.4778 9.54661
rfingers 7.12502
rthumb 2.98164 -20.4123
lclavicle -1.43125e-014 -3.65764e-014
lhumerus -19.5636 -14.6315 91.0625
lradius 65.7961
lwrist -14.9835
lhand -19.1432 16.2097
lfingers 7.12502
lthumb 7.16693 46.0684
rfemur -76.5114 -31.2405 25.7006
rtibia 134.23
rfoot 23.3137 1.19947
rtoes 0.858869
lfemur -50.7814 38.3586 -15.1697
ltibia 117.084
lfoot 8.64869 -18.7542
ltoes -23.5518
1010
root 0.660618 15.7305 -4.07873 -18.4985 -41.3982 3.12854
lowerback 21.7794 2.0159 -3.22533
upperback 10.5631 1.71325 2.14442
thorax -0.803913 0.528752 3.7538
lowerneck -23.7387 -0.439249 -8.13371
upperneck 16.6851 0.740104 6.47852
head 9.06861 0.562718 3.68818
rclavicle -2.24627e-014 -2.70347e-014
rhumerus -21.2333 9.47289 -83.9206
rradius 87.3523
rwrist 36.6052
rhand -23.773 9.31829
rfingers 7.12502
rthumb 2.69662 -20.6444
lclavicle -2.24627e-014 -2.70347e-014
lhumerus -19.6 -14.5378 91.0816
lradius 65.6709
lwrist -14.9177
lhand -19.1911 16.1284
lfingers 7.12502
lthumb 7.12072 45.9886
rfemur -76.1581 -30.8904 25.353
rtibia 133.591
rfoot 24.8841 0.717163
rtoes 1.73797
lfemur -50.7452 38.3021 -14.8744
ltibia 117.078
lfoot 8.73079 -18.7423
ltoes -23.324
1011
root 0.666291 15.7367 -4.08017 -18.5759 -41.3474 3.15283
lowerback 21.8953 1.98813 -3.1539
upperback 10.54 1.68601 2.09809
thorax -0.881666 0.520721 3.66772
lowerneck -23.8981 -0.484695 -8.11285
upperneck 16.776 0.677699 6.49423
head 9.13277 0.537351 3.68642
rclavicle 9.54166e-015 -3.33958e-014
rhumerus -21.2835 9.53743 -83.9833
rradius 87.3797
rwrist 36.3476
rhand -23.8959 9.14954
rfingers 7.12502
rthumb 2.57789 -20.8146
lclavicle 9.54166e-015 -3.33958e-014
lhumerus -19.6103 -14.4116 91.0637
lradius 65.5885
lwrist -15.0072
lhand -18.9898 16.1573
lfingers 7.12502
lthumb 7.31498 46.0108
rfemur -75.7864 -30.5982 24.6978
rtibia 132.88
rfoot 26.4533 0.448523
rtoes 2.2208
lfemur -50.5885 38.2412 -14.9017
ltibia 117.024
lfoot 8.32413 -18.7343
ltoes -23.2399
1012
root 0.671637 15.7423 -4.08332 -18.616 -41.3274 3.24312
lowerback 21.8695 2.00501 -3.14157
upperback 10.5329 1.71055 2.04791
thorax -0.87744 0.535407 3.60136
lowerneck -23.9537 -0.579677 -8.11047
upperneck 16.7453 0.545303 6.52462
head 9.14257 0.480307 3.67829
rclavicle -7.55382e-015 7.95139e-015
rhumerus -21.3012 9.49574 -83.997
rradius 87.4227
rwrist 36.0477
rhand -23.8329 8.99201
rfingers 7.12502
rthumb 2.6387 -20.9714
lclavicle -7.55382e-015 7.95139e-015
lhumerus -19.5463 -14.4196 91.0395
lradius 65.4249
lwrist -15.0332
lhand -19.0075 16.1561
lfingers 7.12502
lthumb 7.29794 46.0102
rfemur -75.516 -30.2199 24.0311
rtibia 132.127
rfoot 28.099 0.216211
rtoes 3.18783
lfemur -50.5771 38.1818 -15.0541
ltibia 116.976
lfoot 8.13892 -18.5392
ltoes -22.7305
1013
root 0.678303 15.7477 -4.08787 -18.5552 -41.2875 3.20503
lowerback 21.9031 2.01079 -3.07934
upperback 10.4741 1.73235 2.06009
thorax -0.95931 0.551869 3.57299
lowerneck -23.9705 -0.65948 -8.04322
upperneck 16.7651 0.440607 6.40305
head 9.16165 0.421618 3.61026
rclavicle 4.57205e-014 -2.3059e-014
rhumerus -21.398 9.4595 -83.9758
rradius 87.4527
rwrist 35.724
rhand -23.7227 8.82568
rfingers 7.12502
rthumb 2.74514 -21.1364
lclavicle 4.57205e-014 -2.3059e-014
lhumerus -19.5516 -14.3981 91.1043
lradius 65.2024
lwrist -15.1095
lhand -19.0819 16.1778
lfingers 7.12502
lthumb 7.22608 46.0344
rfemur -75.2551 -29.8173 23.5448
rtibia 131.293
rfoot 29.7071 0.302914
rtoes 3.54684
lfemur -50.6939 38.0676 -15.1372
ltibia 116.948
lfoot 8.179 -18.4236
ltoes -22.2959
1014
root 0.685058 15.7565 -4.09098 -18.599 -41.2407 3.16948
lowerback 22.0926 2.01449 -3.00013
upperback 10.394 1.74951 2.06497
thorax -1.14042 0.568267 3.52604
lowerneck -23.9424 -0.749977 -8.08992
upperneck 16.825 0.323264 6.4273
head 9.18723 0.365351 3.61107
rclavicle 4.23411e-014 -4.05521e-014
rhumerus -21.5573 9.43672 -84.0076
rradius 87.4126
rwrist 35.4238
rhand -23.7269 8.73296
rfingers 7.12502
rthumb 2.74113 -21.2292
lclavicle 4.23411e-014 -4.05521e-014
lhumerus -19.6492 -14.3799 91.1735
lradius 65.0544
lwrist -15.2278
lhand -18.7199 16.4679
lfingers 7.12502
lthumb 7.57555 46.3123
rfemur -74.7835 -29.474 23.0524
rtibia 130.388
rfoot 31.0696 1.09443
rtoes 2.63514
lfemur -50.5917 37.9865 -15.1304
ltibia 116.876
lfoot 8.17232 -18.421
ltoes -22.3694
1015
root 0.691003 15.766 -4.09303 -18.6658 -41.2001 3.15675
lowerback 22.256 2.01669 -2.91458
upperback 10.3361 1.7656 2.0509
thorax -1.28361 0.583328 3.45577
lowerneck -23.7627 -0.857291 -8.2458
upperneck 16.6704 0.18434 6.58517
head 9.1136 0.308303 3.66673
rclavicle -3.91606e-014 -2.3059e-014
rhumerus -21.6814 9.37868 -84.0621
rradius 87.3281
rwrist 35.2124
rhand -23.7672 8.64362
rfingers 7.12502
rthumb 2.70222 -21.319
lclavicle -3.91606e-014 -2.3059e-014
lhumerus -19.7249 -14.3616 91.2042
lradius 64.9267
lwrist -15.34
lhand -18.3353 16.5839
lfingers 7.12502
lthumb 7.9467 46.4145
rfemur -74.25 -29.1278 22.4316
rtibia 129.491
rfoot 32.1688 1.54021
rtoes 3.43668
lfemur -50.4138 37.96 -15.122
ltibia 116.795
lfoot 7.90608 -18.2205
ltoes -22.0182
1016
root 0.696593 15.7721 -4.09554 -18.6018 -41.1762 3.11858
lowerback 22.292 2.01444 -2.86301
upperback 10.2435 1.77709 2.07372
thorax -1.40304 0.595363 3.4468
lowerneck -23.5316 -0.95915 -8.38422
upperneck 16.5162 0.0652286 6.63971
head 9.03036 0.248841 3.68527
rclavicle -3.18055e-015 -1.90833e-014
rhumerus -21.8618 9.4483 -84.042
rradius 87.2578
rwrist 35.0255
rhand -23.8203 8.56273
rfingers 7.12502
rthumb 2.65086 -21.4005
lclavicle -3.18055e-015 -1.90833e-014
lhumerus -19.9024 -14.2408 91.3234
lradius 64.8506
lwrist -15.4217
lhand -18.4091 16.4374
lfingers 7.12502
lthumb 7.87554 46.2707
rfemur -73.869 -28.7056 21.8692
rtibia 128.596
rfoot 33.011 1.46584
rtoes 5.92327
lfemur -50.4754 37.9553 -15.1949
ltibia 116.751
lfoot 7.70946 -18.1809
ltoes -21.9714
1017
root 0.700663 15.7747 -4.0974 -18.5364 -41.1488 3.12403
lowerback 22.2559 1.99882 -2.87311
upperback 10.1798 1.76007 2.09221
thorax -1.45416 0.589432 3.47623
lowerneck -23.5709 -1.03992 -8.49354
upperneck 16.6224 -0.0132845 6.66317
head 9.08063 0.206685 3.70361
rclavicle -6.97734e-014 4.77083e-015
rhumerus -21.95 9.56551 -84.0391
rradius 87.0891
rwrist 34.9106
rhand -24.1154 8.55177
rfingers 7.12502
rthumb 2.36595 -21.4149
lclavicle -6.97734e-014 4.77083e-015
lhumerus -20.0217 -14.1649 91.4171
lradius 64.7867
lwrist -15.2011
lhand -18.9959 16.0812
lfingers 7.12502
lthumb 7.30914 45.935
rfemur -73.5209 -28.293 21.4027
rtibia 127.665
rfoot 33.6205 2.06311
rtoes 7.68282
lfemur -50.5768 37.9772 -15.3261
ltibia 116.726
lfoot 7.44466 -17.9478
ltoes -21.2796
1018
root 0.703974 15.7754 -4.09924 -18.5359 -41.1324 3.14723
lowerback 22.2497 2.00754 -2.88688
upperback 10.1656 1.76985 2.09325
thorax -1.46772 0.594726 3.48287
lowerneck -23.7276 -1.14801 -8.58029
upperneck 16.7735 -0.14127 6.74568
head 9.17121 0.15068 3.73472
rclavicle 4.47266e-014 -7.15625e-015
rhumerus -21.9576 9.58836 -84.0625
rradius 86.8463
rwrist 34.8532
rhand -24.3856 8.58015
rfingers 7.12502
rthumb 2.10497 -21.3892
lclavicle 4.47266e-014 -7.15625e-015
lhumerus -19.9987 -14.1773 91.4236
lradius 64.6862
lwrist -15.0042
lhand -19.331 15.7865
lfingers 7.12502
lthumb 6.98568 45.6513
rfemur -73.0526 -27.9179 20.9176
rtibia 126.72
rfoot 33.925 2.96477
rtoes 9.5404
lfemur -50.5703 38.059 -15.4021
ltibia 116.729
lfoot 7.21937 -17.9412
ltoes -21.7408
1019
root 0.708425 15.7774 -4.10145 -18.5075 -41.1593 3.05485
lowerback 22.2817 2.00472 -2.77365
upperback 10.1824 1.78677 2.10236
thorax -1.46443 0.605634 3.42377
lowerneck -23.766 -1.24639 -8.64389
upperneck 16.747 -0.269683 6.83304
head 9.17996 0.0974958 3.75781
rclavicle -7.95139e-015 2.14687e-014
rhumerus -21.9345 9.63367 -84.0849
rradius 86.6464
rwrist 34.7818
rhand -24.2162 8.39232
rfingers 7.12502
rthumb 2.26855 -21.5754
lclavicle -7.95139e-015 2.14687e-014
lhumerus -19.9716 -14.189 91.3846
lradius 64.651
lwrist -14.9842
lhand -19.3584 15.7158
lfingers 7.12502
lthumb 6.95914 45.5814
rfemur -72.4765 -27.459 20.5212
rtibia 125.712
rfoot 33.8614 3.7288
rtoes 10.6993
lfemur -50.5049 38.18 -15.3203
ltibia 116.738
lfoot 7.06652 -18.0028
ltoes -22.4784
